<?xml version="1.0" encoding="iso-8859-1"?>
<!-- Generator: Adobe Illustrator 18.0.0, SVG Export Plug-In . SVG Version: 6.00 Build 0)  -->
<!DOCTYPE svg PUBLIC "-//W3C//DTD SVG 1.1//EN" "http://www.w3.org/Graphics/SVG/1.1/DTD/svg11.dtd">
<svg fill="#d1cec5" version="1.1" id="Capa_1" xmlns="http://www.w3.org/2000/svg" xmlns:xlink="http://www.w3.org/1999/xlink" x="0px" y="0px"
	 viewBox="0 0 447.742 447.742" style="enable-background:new 0 0 447.742 447.742;" xml:space="preserve">
<g>
	<path d="M379.765,306.356c0-6.992-5.687-12.68-12.677-12.68h-3.342v-11.568c0-6.986-6.333-10.424-11.236-11.666l-8.003-15.049
		c-0.61-1.148-1.741-1.928-3.031-2.091l-58.38-7.366l-53.642-84.995c-0.733-1.161-2.01-1.865-3.383-1.865H98.527
		c-1.641,0-3.115,1.001-3.719,2.527l-31.485,79.491H32.561c-13.413,0-20.8,7.387-20.8,20.8v31.815C5.196,294.18,0,299.672,0,306.356
		v11.538c0,6.992,5.688,12.68,12.68,12.68h40.669c2.202,21.019,20.025,37.457,41.615,37.457c21.592,0,39.414-16.439,41.616-37.457
		h106.607c2.202,21.019,20.022,37.457,41.612,37.457c21.594,0,39.417-16.439,41.62-37.457h40.668c6.99,0,12.677-5.689,12.677-12.681
		V306.356z M94.964,350.03c-13.149,0-23.847-10.698-23.847-23.849c0-13.15,10.698-23.848,23.847-23.848
		c13.149,0,23.848,10.698,23.848,23.848C118.812,339.332,108.113,350.03,94.964,350.03z M284.8,350.03
		c-13.147,0-23.844-10.698-23.844-23.849c0-13.15,10.696-23.848,23.844-23.848c13.152,0,23.852,10.698,23.852,23.848
		C308.651,339.332,297.952,350.03,284.8,350.03z"/>
	<path d="M378.735,171.771c16.637-7.608,28.23-24.397,28.23-43.854c0-26.581-21.624-48.206-48.205-48.206
		c-26.581,0-48.206,21.625-48.206,48.206c0,26.581,21.625,48.205,48.206,48.205c0.836,0,1.667-0.021,2.492-0.064l31.041,122.492
		l-14.441,58.318c-1.195,4.825,1.748,9.705,6.573,10.899c0.727,0.18,1.454,0.266,2.17,0.266c4.04,0,7.714-2.74,8.729-6.838
		l14.983-60.507c0.355-1.436,0.352-2.939-0.012-4.374L378.735,171.771z M358.761,97.71c16.655,0,30.205,13.55,30.205,30.206
		c0,5.057-1.255,9.824-3.461,14.016l-40.761-40.76C348.936,98.965,353.704,97.71,358.761,97.71z M358.761,158.121
		c-16.656,0-30.206-13.55-30.206-30.205c0-5.058,1.255-9.825,3.461-14.017l40.761,40.76
		C368.585,156.866,363.818,158.121,358.761,158.121z"/>
	<path d="M307.43,210.237l50.304,43.209c1.132,0.973,2.523,1.449,3.907,1.449c1.689,0,3.368-0.709,4.554-2.09
		c2.159-2.514,1.872-6.302-0.642-8.461l-50.304-43.209c-2.514-2.16-6.302-1.871-8.461,0.642
		C304.629,204.29,304.917,208.078,307.43,210.237z"/>
	<path d="M356.906,224.231c0.8,0,1.614-0.161,2.395-0.501c3.038-1.324,4.427-4.86,3.102-7.898L351.44,190.68
		c-1.324-3.038-4.859-4.427-7.897-3.103c-3.038,1.324-4.427,4.86-3.103,7.897l10.963,25.152
		C352.387,222.884,354.592,224.231,356.906,224.231z"/>
	<path d="M422.408,264.509l17.413-41.275c1.288-3.053-0.143-6.572-3.196-7.86c-3.054-1.289-6.573,0.142-7.861,3.196l-17.413,41.273
		c-1.288,3.053,0.143,6.573,3.196,7.861c0.762,0.321,1.552,0.473,2.33,0.473C419.217,268.178,421.441,266.801,422.408,264.509z"/>
	<path d="M435.004,278.221l-14.189,3.87c-3.197,0.872-5.082,4.17-4.21,7.367c0.728,2.668,3.146,4.423,5.785,4.423
		c0.522,0,1.054-0.069,1.582-0.213l14.188-3.87c3.197-0.872,5.082-4.17,4.21-7.367C441.5,279.235,438.202,277.35,435.004,278.221z"
		/>
	<path d="M445.611,324.408l-20.638-17.413c-2.532-2.137-6.317-1.817-8.455,0.717c-2.137,2.533-1.816,6.318,0.717,8.455
		l20.638,17.413c1.126,0.95,2.499,1.414,3.866,1.414c1.707,0,3.402-0.724,4.589-2.131
		C448.465,330.331,448.144,326.546,445.611,324.408z"/>
</g>
<g>
</g>
<g>
</g>
<g>
</g>
<g>
</g>
<g>
</g>
<g>
</g>
<g>
</g>
<g>
</g>
<g>
</g>
<g>
</g>
<g>
</g>
<g>
</g>
<g>
</g>
<g>
</g>
<g>
</g>
</svg>
